<svg width="256" height="256" viewBox="0 0 256 256" fill="none" xmlns="http://www.w3.org/2000/svg">
<mask id="mask0_13_42" style="mask-type:alpha" maskUnits="userSpaceOnUse" x="0" y="0" width="256" height="256">
<path d="M128 0C198.749 0 256 57.2509 256 128C256 198.749 198.749 256 128 256C57.2509 256 0 198.749 0 128C0 57.2509 57.2509 0 128 0Z" fill="white"/>
</mask>
<g mask="url(#mask0_13_42)">
<path d="M128 3C197.091 3 253 58.9091 253 128C253 197.091 197.091 253 128 253C58.9091 253 3 197.091 3 128C3 58.9091 58.9091 3 128 3Z" fill="black"/>
<path d="M128 7.38597C194.667 7.38597 248.614 61.3333 248.614 128C248.614 194.667 194.667 248.614 128 248.614C61.3334 248.614 7.38599 194.667 7.38599 128C7.38599 61.3333 61.3334 7.38597 128 7.38597Z" fill="#BDBDBD"/>
<path d="M192.035 181.07C187.649 194.667 181.07 204.754 171.86 212.211C162.649 219.667 150.368 223.614 135.018 224.93L131.947 204.754C142.035 203.439 149.491 201.246 154.316 197.737C156.07 196.421 159.579 192.474 159.579 192.474L123.175 75.807H153.439L174.491 163.088L196.86 75.807H226.246L192.035 181.07ZM86.3334 71.8596C93.3509 71.8596 99.9299 72.7368 105.193 74.9298C110.895 77.1228 116.158 80.193 121.421 84.5789L109.14 101.246C105.632 98.614 102.123 96.8597 99.0527 95.5439C95.9825 94.2281 92.0351 93.7895 88.5264 93.7895C73.6141 93.7895 66.1579 105.193 66.1579 128.439C66.1579 140.281 67.9123 148.614 71.8597 153.439C75.8071 158.702 81.0702 160.895 88.5264 160.895C92.0351 160.895 95.5439 160.456 98.6141 159.14C101.684 157.825 105.193 156.07 109.579 153.439L121.86 170.982C111.772 179.316 100.368 183.263 87.2106 183.263C76.6843 183.263 67.9123 181.07 60.0176 176.684C52.5614 172.298 46.4211 165.719 42.4737 157.386C38.5264 149.053 36.3334 139.404 36.3334 128C36.3334 117.035 38.5264 106.947 42.4737 98.614C46.4211 89.8421 52.5614 83.2632 60.0176 78.4386C67.4737 74.4912 76.2457 71.8596 86.3334 71.8596Z" fill="black"/>
</g>
</svg>
