<svg width="82" height="123" viewBox="0 0 82 123" fill="none" xmlns="http://www.w3.org/2000/svg">
<path d="M20.48 122.88C31.78 122.88 40.96 113.71 40.96 102.4V81.92H20.48C9.18 81.92 0 91.09 0 102.4C0 113.71 9.18 122.88 20.48 122.88Z" fill="#959595"/>
<path d="M0 61.44C0 50.14 9.18 40.96 20.48 40.96H40.96V81.92H20.48C9.18 81.92 0 72.75 0 61.44Z" fill="#646464"/>
<path d="M0 20.48C0 9.18 9.18 0 20.48 0H40.96V40.96H20.48C9.18 40.96 0 31.79 0 20.48Z" fill="#7D7D7D"/>
<path d="M40.96 0H61.44C72.74 0 81.92 9.18 81.92 20.48C81.92 31.79 72.75 40.96 61.44 40.96H40.96V0Z" fill="#AFAFAF"/>
<path d="M81.92 61.44C81.92 72.75 72.75 81.92 61.44 81.92C50.13 81.92 40.96 72.75 40.96 61.44C40.96 50.14 50.13 40.96 61.44 40.96C72.75 40.96 81.92 50.14 81.92 61.44Z" fill="#A0A1A2"/>
</svg>
