<svg width="109" height="123" viewBox="0 0 109 123" fill="none" xmlns="http://www.w3.org/2000/svg">
<path fill-rule="evenodd" clip-rule="evenodd" d="M68.43 87.0799C48.73 87.0799 44.6 78.0399 44.6 70.4499C44.6 69.7299 45.18 69.1499 45.9 69.1499H51.72C52.36 69.1499 52.9 69.6199 53 70.2499C53.88 76.1799 56.49 79.1699 68.41 79.1699C77.9 79.1699 81.93 77.0299 81.93 71.9899C81.93 69.0899 80.78 66.9399 66.04 65.4999C53.71 64.2799 46.09 61.5699 46.09 51.6999C46.09 42.6199 53.75 37.2099 66.59 37.2099C81.01 37.2099 88.15 42.2099 89.05 52.9699C89.08 53.3399 88.95 53.6999 88.7 53.9699C88.45 54.2299 88.1 54.3899 87.74 54.3899H81.9C81.29 54.3899 80.76 53.9599 80.64 53.3799C79.23 47.1499 75.83 45.1499 66.57 45.1499C56.21 45.1499 55.01 48.7599 55.01 51.4599C55.01 54.7399 56.43 55.6999 70.41 57.5499C84.25 59.3899 90.82 61.9799 90.82 71.7099C90.82 81.5199 82.64 87.1399 68.37 87.1399L68.43 87.0799ZM54.52 122.88C52.87 122.88 51.24 122.45 49.8 121.62L34.77 112.72C32.52 111.46 33.62 111.02 34.36 110.76C37.35 109.71 37.96 109.48 41.16 107.66C41.5 107.47 41.94 107.54 42.28 107.74L53.83 114.59C54.25 114.82 54.84 114.82 55.23 114.59L100.26 88.5999C100.68 88.3599 100.95 87.8799 100.95 87.3799V35.4299C100.95 34.9099 100.68 34.4499 100.25 34.1899L55.23 8.21994C54.81 7.96994 54.26 7.96994 53.84 8.21994L8.84 34.1899C8.4 34.4399 8.13 34.9199 8.13 35.4199V87.3799C8.13 87.8799 8.4 88.3499 8.83 88.5899L21.16 95.7099C27.85 99.0599 31.95 95.1099 31.95 91.1499V39.8599C31.95 39.1299 32.52 38.5599 33.26 38.5599H38.96C39.67 38.5599 40.26 39.1199 40.26 39.8599V91.1699C40.26 100.1 35.39 105.22 26.93 105.22C24.33 105.22 22.27 105.22 16.55 102.4L4.72 95.5899C1.8 93.8999 0 90.7499 0 87.3799V35.4199C0 32.0399 1.8 28.8799 4.72 27.2099L49.79 1.20994C52.64 -0.400059 56.43 -0.400059 59.26 1.20994L104.28 27.2199C107.19 28.8999 109 32.0399 109 35.4299V87.3899C109 90.7599 107.19 93.8999 104.28 95.5999L59.26 121.6C57.82 122.43 56.18 122.86 54.52 122.86V122.88Z" fill="#BDBDBD"/>
</svg>
