<svg width="255" height="229" viewBox="0 0 255 229" fill="none" xmlns="http://www.w3.org/2000/svg">
<path d="M0 113.966C0 133.18 18.7625 151.118 48.3431 161.228C42.4361 190.966 47.2844 214.934 63.4784 224.274C80.1241 233.873 104.922 227.228 128.459 206.654C151.402 226.398 174.59 234.168 190.768 224.801C207.398 215.175 212.456 189.581 206.386 158.915C237.196 148.728 254.43 133.433 254.43 113.966C254.43 95.197 235.633 78.9594 206.451 68.9135C212.986 36.9802 207.449 13.5934 190.584 3.86825C174.325 -5.50743 150.868 2.66443 127.588 22.9248C103.369 1.42002 80.1432 -5.14564 63.2953 4.60789C47.0521 14.0102 42.417 38.4142 48.3431 68.7024C19.7613 78.6677 0 95.272 0 113.966Z" fill="black"/>
<path d="M200.27 78.8896C197.926 78.0828 195.498 77.3194 192.997 76.5975C193.408 74.9199 193.785 73.264 194.12 71.6363C199.627 44.909 196.026 23.3772 183.733 16.2881C171.946 9.49048 152.668 16.578 133.198 33.5219C131.326 35.1512 129.448 36.8762 127.572 38.6841C126.321 37.488 125.073 36.3321 123.828 35.2264C103.423 17.1089 82.9701 9.47399 70.689 16.5837C58.9126 23.401 55.4251 43.6429 60.3814 68.9726C60.86 71.4192 61.4195 73.9176 62.0521 76.4579C59.1575 77.2796 56.363 78.1556 53.6892 79.0875C29.7668 87.4279 14.4888 100.499 14.4888 114.058C14.4888 128.061 30.8897 142.107 55.8068 150.623C57.7731 151.296 59.8135 151.931 61.9162 152.534C61.2337 155.282 60.64 157.974 60.1417 160.6C55.4158 185.49 59.1064 205.254 70.8515 212.028C82.983 219.024 103.343 211.833 123.169 194.503C124.736 193.133 126.308 191.68 127.884 190.158C129.926 192.124 131.964 193.985 133.992 195.731C153.196 212.256 172.162 218.929 183.896 212.135C196.016 205.12 199.955 183.889 194.841 158.058C194.451 156.085 193.996 154.07 193.486 152.018C194.916 151.596 196.319 151.159 197.688 150.706C223.592 142.123 240.445 128.248 240.445 114.058C240.445 100.45 224.675 87.2908 200.27 78.8896Z" fill="#BDBDBD"/>
<path d="M194.652 141.543C193.417 141.952 192.149 142.347 190.857 142.731C187.997 133.678 184.138 124.051 179.415 114.105C183.922 104.396 187.632 94.8923 190.412 85.8979C192.723 86.5668 194.967 87.2723 197.128 88.0167C218.038 95.2149 230.793 105.857 230.793 114.058C230.793 122.793 217.018 134.132 194.652 141.543ZM185.372 159.932C187.633 171.354 187.956 181.681 186.458 189.754C185.112 197.008 182.406 201.845 179.06 203.782C171.939 207.904 156.711 202.546 140.288 188.413C138.405 186.793 136.509 185.063 134.606 183.233C140.973 176.269 147.336 168.174 153.547 159.184C164.47 158.215 174.79 156.63 184.149 154.467C184.61 156.326 185.019 158.149 185.372 159.932ZM91.5225 203.07C84.5653 205.527 79.0242 205.597 75.6747 203.666C68.5473 199.555 65.5843 183.686 69.626 162.4C70.0889 159.963 70.6399 157.458 71.275 154.899C80.5312 156.946 90.7756 158.419 101.725 159.306C107.977 168.104 114.524 176.19 121.122 183.27C119.681 184.662 118.245 185.986 116.817 187.235C108.05 194.898 99.2649 200.335 91.5225 203.07ZM58.9287 141.49C47.9108 137.724 38.8119 132.829 32.575 127.489C26.9707 122.689 24.1412 117.924 24.1412 114.058C24.1412 105.83 36.4079 95.3356 56.8666 88.2025C59.349 87.337 61.9476 86.5214 64.6443 85.7552C67.4718 94.9527 71.1809 104.569 75.657 114.293C71.123 124.161 67.3612 133.931 64.506 143.236C62.5835 142.683 60.7209 142.102 58.9287 141.49ZM69.8544 67.1188C65.608 45.417 68.4282 29.0458 75.525 24.9378C83.0844 20.5614 99.8002 26.8012 117.418 42.4447C118.544 43.4446 119.675 44.4911 120.809 45.5738C114.244 52.6232 107.757 60.6487 101.56 69.3941C90.9329 70.3791 80.7605 71.9613 71.4077 74.0801C70.8197 71.7148 70.2989 69.3909 69.8544 67.1188ZM167.322 91.1861C165.086 87.3241 162.791 83.5535 160.451 79.8859C167.66 80.7972 174.567 82.0071 181.054 83.4876C179.107 89.7289 176.679 96.2546 173.822 102.944C171.773 99.0531 169.605 95.1296 167.322 91.1861ZM127.575 52.4723C132.027 57.2959 136.486 62.6814 140.872 68.5245C136.452 68.3158 131.978 68.2072 127.467 68.2072C122.999 68.2072 118.558 68.3134 114.166 68.5185C118.556 62.7296 123.053 57.3514 127.575 52.4723ZM87.5733 91.2528C85.3399 95.1256 83.2123 99.0277 81.1948 102.937C78.3839 96.2707 75.9791 89.7152 74.0148 83.3854C80.4616 81.9427 87.3364 80.7631 94.5 79.869C92.127 83.5704 89.8128 87.3688 87.5733 91.252V91.2528ZM94.7063 148.935C87.3051 148.11 80.3269 146.991 73.8817 145.588C75.8774 139.145 78.3352 132.45 81.2057 125.64C83.2284 129.546 85.3644 133.45 87.6115 137.331H87.6119C89.9009 141.285 92.2722 145.158 94.7063 148.935ZM127.842 176.324C123.267 171.388 118.704 165.928 114.247 160.054C118.573 160.224 122.984 160.311 127.467 160.311C132.073 160.311 136.626 160.207 141.107 160.008C136.707 165.987 132.264 171.455 127.842 176.324ZM173.914 125.293C176.934 132.176 179.48 138.837 181.502 145.17C174.95 146.664 167.877 147.868 160.424 148.763C162.77 145.045 165.085 141.21 167.36 137.265C169.662 133.273 171.848 129.276 173.914 125.293ZM158.999 132.442C155.467 138.567 151.841 144.413 148.159 149.932C141.454 150.411 134.527 150.658 127.467 150.658C120.435 150.658 113.596 150.44 107.009 150.012C103.179 144.421 99.4744 138.558 95.9648 132.495H95.9656C92.4653 126.449 89.2437 120.352 86.3245 114.29C89.2429 108.213 92.456 102.109 95.9363 96.074L95.9355 96.0752C99.4249 90.0241 103.097 84.189 106.892 78.633C113.612 78.125 120.503 77.86 127.467 77.86H127.467C134.463 77.86 141.362 78.127 148.08 78.6395C151.817 84.1548 155.464 89.971 158.967 96.0229C162.51 102.143 165.765 108.206 168.708 114.152C165.774 120.201 162.526 126.325 158.999 132.442ZM178.912 24.6506C186.478 29.0141 189.421 46.6119 184.667 69.6881C184.363 71.1605 184.022 72.6603 183.651 74.1803C174.277 72.0172 164.097 70.4076 153.439 69.4078C147.23 60.5662 140.796 52.5283 134.338 45.5694C136.075 43.8991 137.808 42.3064 139.535 40.8033C156.217 26.2859 171.808 20.5542 178.912 24.6506Z" fill="black"/>
<path d="M127.467 93.8808C138.61 93.8808 147.644 102.914 147.644 114.058C147.644 125.201 138.61 134.235 127.467 134.235C116.324 134.235 107.29 125.201 107.29 114.058C107.29 102.914 116.324 93.8808 127.467 93.8808Z" fill="#BDBDBD"/>
</svg>
