<svg width="123" height="74" viewBox="0 0 123 74" fill="none" xmlns="http://www.w3.org/2000/svg">
<path fill-rule="evenodd" clip-rule="evenodd" d="M61.44 0C45.06 0 34.82 8.14333 30.72 24.43C36.8667 16.29 44.0333 13.2367 52.22 15.27C56.9 16.43 60.22 19.8 63.94 23.53C69.94 29.61 76.94 36.64 92.16 36.64C108.54 36.64 118.78 28.4967 122.88 12.21C116.74 20.3567 109.573 23.41 101.38 21.37C96.7 20.21 93.38 16.84 89.66 13.11C83.64 7 76.67 0 61.44 0ZM30.72 36.64C14.34 36.64 4.1 44.7833 0 61.07C6.15333 52.93 13.32 49.8767 21.5 51.91C26.18 53.07 29.5 56.44 33.22 60.18C39.22 66.25 46.22 73.29 61.44 73.29C77.82 73.29 88.06 65.1467 92.16 48.86C86.02 57 78.8533 60.0467 70.66 58C65.98 56.84 62.66 53.47 58.94 49.74C52.94 43.66 45.94 36.62 30.72 36.62V36.64Z" fill="#BDBDBD"/>
</svg>
