<svg width="109" height="123" viewBox="0 0 109 123" fill="none" xmlns="http://www.w3.org/2000/svg">
<path fill-rule="evenodd" clip-rule="evenodd" d="M0 0L9.86 110.59L54.11 122.88L98.47 110.58L108.35 0H0ZM70.96 63.62L69.39 81.21L54.24 85.3L39.14 81.23L38.18 70.4H24.56L26.46 91.7L54.31 99.4L82.07 91.7L85.79 50.06H36.36L35.12 36.17H87.02L88.23 22.61H20.29L23.95 63.63L70.96 63.62ZM90.02 103.54L54.36 113.42V113.47L54.27 113.44L54.18 113.47V113.42L18.52 103.54L10.08 9.05H98.46L90.02 103.54Z" fill="#BDBDBD"/>
</svg>
