<svg width="399" height="440" viewBox="0 0 399 440" fill="none" xmlns="http://www.w3.org/2000/svg">
<path d="M334.92 218.1C334.38 218.43 316.57 215.44 294.25 213.93C275.356 212.73 256.404 212.73 237.51 213.93C223.51 214.93 205.07 207.84 202.87 216.21C194.63 247.56 176.87 274.87 154.36 296.14C137.917 311.855 118.383 323.976 97 331.73C72 318.89 60.19 290.33 70.84 265.29C79.29 245.42 89.12 223.55 70.97 218.54C57.76 214.9 50.51 227.54 45.43 241.09C35.69 267 17.2 293.83 11.93 325.61C6.37005 359.15 11.93 394.76 40.93 414.86C108.49 461.69 181.83 385.86 259.16 366.77C287.16 359.85 317.94 360.97 342.63 346.67C351.547 341.59 359.236 334.61 365.152 326.224C371.067 317.839 375.065 308.254 376.86 298.15C382.43 266 365.71 234.09 334.92 218.1Z" fill="#BDBDBD" stroke="black" stroke-width="20"/>
<path d="M202.87 216.19C194.63 247.54 176.87 274.85 154.36 296.12C137.92 311.843 118.385 323.971 97 331.73C72 318.89 60.2 290.33 70.85 265.29C79.3 245.42 89.13 223.55 70.98 218.54C57.77 214.9 50.51 227.54 45.44 241.09C35.69 267 17.2 293.84 11.93 325.61C6.37005 359.15 11.93 394.76 40.93 414.86C108.49 461.69 181.83 385.86 259.16 366.77C287.16 359.85 317.94 360.97 342.63 346.67C351.547 341.59 359.236 334.61 365.152 326.224C371.067 317.839 375.065 308.254 376.86 298.15C382.44 266.02 365.72 234.09 334.93 218.15" stroke="black" stroke-width="20"/>
<path d="M264.89 91.17L319.21 201.98L384.31 10H145.32L210.26 201.64L264.89 91.17Z" fill="#BDBDBD"/>
<path d="M264.89 91.17L319.21 201.98L384.31 10H145.32L210.26 201.64L264.89 91.17Z" stroke="black" stroke-width="20"/>
<path d="M198.99 257.53C221.606 257.53 239.94 239.196 239.94 216.58C239.94 193.964 221.606 175.63 198.99 175.63C176.374 175.63 158.04 193.964 158.04 216.58C158.04 239.196 176.374 257.53 198.99 257.53Z" fill="#BDBDBD"/>
<path d="M198.99 257.53C221.606 257.53 239.94 239.196 239.94 216.58C239.94 193.964 221.606 175.63 198.99 175.63C176.374 175.63 158.04 193.964 158.04 216.58C158.04 239.196 176.374 257.53 198.99 257.53Z" stroke="black" stroke-width="20"/>
<path d="M332.37 257.53C354.986 257.53 373.32 239.196 373.32 216.58C373.32 193.964 354.986 175.63 332.37 175.63C309.754 175.63 291.42 193.964 291.42 216.58C291.42 239.196 309.754 257.53 332.37 257.53Z" fill="#BDBDBD" stroke="black" stroke-width="20"/>
<path d="M332.37 257.53C354.986 257.53 373.32 239.196 373.32 216.58C373.32 193.964 354.986 175.63 332.37 175.63C309.754 175.63 291.42 193.964 291.42 216.58C291.42 239.196 309.754 257.53 332.37 257.53Z" stroke="black" stroke-width="20"/>
<path d="M65.1 257.82C87.7106 257.82 106.04 239.491 106.04 216.88C106.04 194.269 87.7106 175.94 65.1 175.94C42.4895 175.94 24.16 194.269 24.16 216.88C24.16 239.491 42.4895 257.82 65.1 257.82Z" fill="#BDBDBD"/>
<path d="M65.1 257.82C87.7106 257.82 106.04 239.491 106.04 216.88C106.04 194.269 87.7106 175.94 65.1 175.94C42.4895 175.94 24.16 194.269 24.16 216.88C24.16 239.491 42.4895 257.82 65.1 257.82Z" stroke="black" stroke-width="20"/>
</svg>
