<svg width="124" height="93" viewBox="0 0 124 93" fill="none" xmlns="http://www.w3.org/2000/svg">
<path fill-rule="evenodd" clip-rule="evenodd" d="M106.78 52.89C102.48 52.91 98.76 53.95 95.64 55.48C94.49 53.2 93.34 51.21 93.14 49.72C92.92 47.99 92.66 46.94 92.92 44.87C93.18 42.81 94.38 39.88 94.38 39.64C94.36 39.42 94.12 38.37 91.64 38.34C89.17 38.32 87.03 38.82 86.79 39.47C86.55 40.12 86.07 41.61 85.76 43.14C85.33 45.4 80.82 53.39 78.25 57.59C77.41 55.96 76.69 54.52 76.55 53.37C76.33 51.64 76.07 50.59 76.33 48.52C76.59 46.46 77.79 43.53 77.79 43.29C77.77 43.07 77.53 42.02 75.05 41.99C72.58 41.97 70.44 42.47 70.2 43.12C69.96 43.77 69.7 45.3 69.17 46.79C68.67 48.28 62.67 61.62 61.11 65.1C60.32 66.88 59.62 68.29 59.12 69.25C58.62 70.21 59.1 69.32 59.05 69.42C58.62 70.24 58.38 70.69 58.38 70.69V70.71C58.04 71.31 57.68 71.89 57.52 71.89C57.4 71.89 57.16 70.28 57.57 68.07C58.46 63.44 60.62 56.21 60.59 55.95C60.59 55.83 61 54.56 59.2 53.91C57.45 53.26 56.82 54.34 56.68 54.34C56.54 54.34 56.42 54.72 56.42 54.72C56.42 54.72 58.36 46.58 52.7 46.58C49.15 46.58 44.25 50.44 41.83 53.97C40.29 54.81 37.03 56.59 33.57 58.48C32.25 59.2 30.88 59.97 29.59 60.66L29.33 60.37C22.46 53.08 9.76003 47.9 10.29 38.06C10.48 34.48 11.73 25.05 34.68 13.63C53.47 4.26999 68.52 6.83999 71.14 12.55C74.86 20.71 63.1 35.88 43.56 38.06C36.12 38.9 32.21 36.02 31.22 34.94C30.19 33.81 30.04 33.76 29.66 33.98C29.04 34.32 29.42 35.32 29.66 35.92C30.24 37.43 32.64 40.12 36.72 41.46C40.3 42.64 49.03 43.28 59.59 39.2C71.42 34.62 80.66 21.89 77.95 11.26C75.19 0.449993 57.24 -3.11001 40.27 2.91999C30.17 6.51999 19.22 12.14 11.35 19.51C1.99003 28.24 0.500026 35.87 1.12003 39.04C3.30003 50.35 18.88 57.71 25.12 63.16C24.81 63.33 24.52 63.5 24.26 63.64C21.14 65.18 9.26003 71.39 6.28003 77.97C2.92003 85.41 6.81003 90.77 9.40003 91.49C17.42 93.72 25.63 89.71 30.07 83.11C34.49 76.51 33.96 67.94 31.92 64.03L31.85 63.89L34.3 62.45C35.88 61.51 37.44 60.65 38.81 59.91C38.04 62 37.49 64.47 37.2 68.07C36.86 72.29 38.59 77.77 40.87 79.93C41.88 80.87 43.08 80.89 43.82 80.89C46.46 80.89 47.66 78.71 48.98 76.09C50.61 72.9 52.05 69.2 52.05 69.2C52.05 69.2 50.25 79.21 55.17 79.21C56.97 79.21 58.77 76.88 59.59 75.68V75.7C59.59 75.7 59.64 75.63 59.73 75.46C59.83 75.31 59.93 75.16 60.02 75V74.95C60.74 73.7 62.35 70.85 64.75 66.12C67.85 60.02 70.82 52.39 70.82 52.39C70.82 52.39 71.11 54.26 72 57.33C72.53 59.15 73.68 61.15 74.57 63.09C73.85 64.1 73.42 64.67 73.42 64.67L73.44 64.69C72.86 65.46 72.22 66.27 71.54 67.09C69.09 70.02 66.16 73.35 65.78 74.31C65.32 75.44 65.42 76.28 66.31 76.95C66.96 77.43 68.11 77.53 69.33 77.43C71.54 77.29 73.07 76.73 73.84 76.4C75.04 75.97 76.41 75.32 77.73 74.36C80.13 72.58 81.59 70.06 81.45 66.7C81.38 64.85 80.78 63.03 80.03 61.3C80.25 60.99 80.46 60.68 80.68 60.34C84.47 54.8 87.4 48.7 87.4 48.7C87.4 48.7 87.69 50.57 88.58 53.64C89.04 55.2 89.95 56.9 90.76 58.58C87.21 61.48 84.98 64.84 84.21 67.05C82.79 71.13 83.9 72.98 85.99 73.41C86.93 73.6 88.27 73.17 89.28 72.74C90.53 72.33 92.04 71.64 93.43 70.6C95.83 68.82 98.13 66.35 98.01 63.02C97.94 61.48 97.53 59.97 96.98 58.53C100 57.28 103.92 56.56 108.88 57.16C119.56 58.41 121.67 65.08 121.27 67.86C120.86 70.64 118.63 72.18 117.89 72.66C117.15 73.12 116.91 73.28 116.98 73.62C117.08 74.12 117.41 74.1 118.06 74C118.95 73.86 123.68 71.72 123.87 66.58C124.16 60.02 117.89 52.82 106.78 52.89ZM24.41 80.66C20.88 84.52 15.91 85.99 13.8 84.74C11.52 83.42 12.41 77.73 16.75 73.63C19.39 71.13 22.82 68.83 25.08 67.41C25.58 67.1 26.35 66.64 27.26 66.09C27.4 65.99 27.5 65.95 27.5 65.95C27.67 65.85 27.86 65.73 28.05 65.61C29.66 71.47 28.13 76.6 24.41 80.66ZM50.21 63.12C48.99 66.12 46.39 73.83 44.83 73.39C43.49 73.03 42.67 67.2 44.57 61.44C45.53 58.54 47.57 55.08 48.77 53.74C50.71 51.58 52.83 50.86 53.35 51.75C53.98 52.89 50.98 61.24 50.21 63.12ZM71.5 73.29C70.97 73.55 70.49 73.75 70.28 73.6C70.11 73.5 70.5 73.14 70.5 73.14C70.5 73.14 73.16 70.28 74.22 68.96C74.82 68.19 75.54 67.3 76.31 66.3V66.59C76.3 70.05 72.99 72.36 71.5 73.29ZM87.92 69.55C87.54 69.26 87.58 68.37 88.88 65.59C89.38 64.49 90.54 62.64 92.53 60.89C92.77 61.61 92.91 62.31 92.89 62.95C92.86 67.27 89.79 68.88 87.92 69.55Z" fill="#BDBDBD"/>
</svg>
