<?xml version="1.0" encoding="utf-8"?><svg version="1.1" id="Layer_1" xmlns="http://www.w3.org/2000/svg" xmlns:xlink="http://www.w3.org/1999/xlink" x="0px" y="0px" viewBox="0 0 108.35 122.88" style="enable-background:new 0 0 108.35 122.88" xml:space="preserve"><style type="text/css">.st0{fill-rule:evenodd;clip-rule:evenodd;}</style><g><path class="st0" d="M0,0l9.86,110.59l44.25,12.29l44.36-12.3L108.35,0L0,0L0,0L0,0z M70.96,63.62l-1.57,17.59l-15.15,4.09 l-15.1-4.07L38.18,70.4l-13.62,0l1.9,21.3l27.85,7.7l27.76-7.7l3.72-41.64H36.36l-1.24-13.89h51.9l1.21-13.56H20.29l3.66,41.02 L70.96,63.62L70.96,63.62z M90.02,103.54l-35.66,9.88v0.05l-0.09-0.03l-0.09,0.03v-0.05l-35.66-9.88L10.08,9.05h88.38L90.02,103.54 L90.02,103.54z"/></g></svg>